PathFileType	4	(X/Y/Z)	Kaydara																																																																																																																									
DataRate	CameraRate	NumFrames	NumMarkers	Units	OrigDataRate	OrigDataStartFrame	OrigNumFrames																																																																																																																					
30	30	7	41	mm	30	171	195																																																																																																																					
Frame#	Time	NABA_LFHD			NABA_RFHD			NABA_LBHD			NABA_RBHD			NABA_LFTShould			NABA_RFTShould			NABA_LRRShould			NABA_RRRShould			NABA_T10			NABA_STRN			NABA_TRUN			NABA_LSHO			NABA_LUPA			NABA_LELB			NABA_LFRM			NABA_LWRA			NABA_LWRB			NABA_LFIN			NABA_RSHO			NABA_RUPA			NABA_RELB			NABA_RFRM			NABA_RWRA			NABA_RWRB			NABA_RFIN			NABA_LFWT			NABA_RFWT			NABA_LBWT			NABA_RBWT			NABA_LTHI			NABA_LKNE			NABA_LSHN			NABA_LANK			NABA_LHEE			NABA_LTOE			NABA_RTHI			NABA_RKNE			NABA_RSHN			NABA_RANK			NABA_RHEE			NABA_RTOE		
		X1	Y1	Z1	X2	Y2	Z2	X3	Y3	Z3	X4	Y4	Z4	X5	Y5	Z5	X6	Y6	Z6	X7	Y7	Z7	X8	Y8	Z8	X9	Y9	Z9	X10	Y10	Z10	X11	Y11	Z11	X12	Y12	Z12	X13	Y13	Z13	X14	Y14	Z14	X15	Y15	Z15	X16	Y16	Z16	X17	Y17	Z17	X18	Y18	Z18	X19	Y19	Z19	X20	Y20	Z20	X21	Y21	Z21	X22	Y22	Z22	X23	Y23	Z23	X24	Y24	Z24	X25	Y25	Z25	X26	Y26	Z26	X27	Y27	Z27	X28	Y28	Z28	X29	Y29	Z29	X30	Y30	Z30	X31	Y31	Z31	X32	Y32	Z32	X33	Y33	Z33	X34	Y34	Z34	X35	Y35	Z35	X36	Y36	Z36	X37	Y37	Z37	X38	Y38	Z38	X39	Y39	Z39	X40	Y40	Z40	X41	Y41	Z41
																																																																																																																												
171	5.677	263.40342	1568.88229	1709.33075	93.7611	1560.94849	1737.70462	275.08347	1511.51825	1597.16904	58.14999	1524.8288	1648.97324	251.28536	1301.8808	1739.47906	116.46996	1303.68576	1757.62665	236.09455	1312.73666	1609.64981	91.17175	1318.43414	1635.92072	164.48196	1140.29915	1601.33057	191.30407	1263.98468	1806.84464	198.00188	1184.91219	1880.51376	339.69425	1303.21686	1672.93259	408.5693	1078.11264	1687.73636	420.34431	1001.69319	1748.27713	367.79942	946.26213	1796.07742	229.68164	1018.71445	1883.65372	278.08781	990.96191	1930.923	262.99887	1047.00485	1952.07306	21.42355	1313.42804	1716.7598	-50.61373	1113.29414	1706.89713	-91.59734	1010.39734	1795.95444	-11.86089	976.65855	1869.47281	135.77724	1042.23549	1911.32599	95.73019	1033.58925	1969.20883	120.35972	1072.79068	1983.42911	304.61107	900.5127	1817.54822	38.59852	894.05899	1826.72241	251.92221	963.95523	1653.4761	78.08792	977.80418	1654.935	307.68974	596.38161	1733.09601	297.1652	460.88013	1820.24612	244.49068	279.04533	1887.06497	271.27907	116.17141	1860.20462	213.85805	58.2549	1816.96716	225.42528	46.95012	2000.15045	32.42536	622.58343	1660.00732	41.18968	442.08145	1752.52823	51.10855	293.31669	1637.82974	51.68672	182.93631	1466.73889	101.90247	188.1698	1390.55817	78.48572	45.44196	1504.08737
172	5.71	268.65107	1573.12286	1740.68771	99.16648	1566.54205	1770.56702	278.94764	1513.97339	1629.14673	62.55352	1529.29443	1682.71454	255.42713	1307.75467	1775.7016	121.67775	1308.74054	1791.33514	242.24995	1319.86984	1646.74698	97.45607	1324.59076	1671.13007	171.31392	1146.71593	1635.24231	195.85117	1271.49612	1843.05023	202.78025	1190.30838	1915.08972	344.75277	1309.71649	1710.75531	415.17891	1085.53482	1727.11014	423.76045	1007.13661	1784.08295	368.40378	953.23402	1829.86923	227.6679	1031.37596	1911.6684	274.12363	1001.43906	1960.41748	260.0655	1056.79832	1981.73264	26.92127	1318.42804	1749.65652	-45.72818	1120.1255	1731.90628	-82.89568	1010.4155	1814.46274	-1.67163	976.04362	1886.32401	143.24986	1045.26367	1931.8428	103.26629	1032.09557	1987.78564	120.51881	1068.60901	2007.97379	312.58844	906.53076	1849.92767	47.309	897.29881	1856.56403	258.43311	967.26753	1683.38806	88.23902	978.59802	1685.29587	315.08097	600.74379	1755.93002	304.67291	461.8129	1837.91855	248.99088	277.36553	1897.5708	272.43088	115.67742	1865.64911	213.9949	59.88227	1818.31207	224.52868	45.7496	2001.21536	38.30329	616.08582	1706.4682	43.65948	442.77836	1812.54486	56.04014	299.21606	1691.5213	59.94397	203.58179	1512.02057	114.05581	216.23646	1442.47482	81.90026	52.94538	1524.72733
173	5.743	272.84252	1576.31424	1774.0799	103.43743	1569.90173	1804.56406	282.66829	1516.69983	1662.79419	66.47955	1532.22504	1717.02179	259.81333	1311.36108	1811.00052	124.98389	1309.272	1826.27197	249.35331	1325.07706	1681.71539	102.67156	1327.4588	1703.10547	179.64739	1150.95352	1666.2294	199.19336	1273.10059	1877.28241	205.59803	1189.92844	1947.46414	349.95758	1313.97583	1749.79828	421.65089	1089.51157	1769.98032	427.86152	1009.97406	1822.50244	372.29336	955.24338	1865.31021	228.35556	1029.06937	1947.58575	275.58619	997.71782	1995.23346	259.51729	1053.41499	2018.87817	31.01449	1319.30511	1782.10693	-40.88055	1120.92163	1755.92529	-75.00463	1006.30722	1832.13425	6.26325	972.69485	1903.79379	146.9553	1044.93073	1956.93146	105.28743	1028.30444	2010.61371	118.98749	1063.22495	2034.65591	318.78767	909.5472	1879.49036	52.33969	897.79282	1883.82034	264.77592	969.3174	1711.45859	96.7942	977.56683	1711.26022	321.93241	604.18541	1777.02942	311.17092	463.08506	1854.22882	253.75065	276.01904	1907.81219	274.07612	115.61748	1867.89658	214.33884	61.66069	1819.52591	225.03052	45.01558	2001.79276	45.81646	610.95078	1753.02948	48.91113	445.4184	1873.60657	63.00519	304.14045	1752.50381	67.88408	217.7669	1567.55173	124.25448	235.79687	1501.36032	84.87397	64.27407	1564.4046
174	5.777	276.16898	1578.4935	1809.37729	106.75424	1570.97275	1839.55643	286.39101	1520.47882	1697.27417	70.0354	1534.36981	1751.45432	261.9326	1314.21341	1844.86023	127.33922	1309.60251	1856.74057	257.32208	1328.78937	1712.76428	107.75657	1329.62372	1732.35779	188.8306	1154.179	1696.10245	201.68245	1271.58112	1908.76572	207.21304	1187.64732	1977.89612	355.32539	1319.24622	1785.94467	427.34821	1092.67166	1810.85098	430.81509	1013.43643	1862.02271	378.5667	954.59274	1900.62714	232.11863	1011.89102	1990.33768	283.29607	981.40991	2035.88882	257.30993	1033.45161	2063.97583	33.60321	1318.87985	1810.20111	-33.11559	1118.70834	1777.68341	-67.88379	1003.56621	1849.86786	8.76085	966.35803	1923.70117	146.06135	1036.12076	1988.48236	100.27372	1016.07307	2039.69086	114.43679	1052.63367	2065.0116	326.3385	911.09894	1905.0206	58.63599	897.7964	1911.11481	271.14679	970.28236	1737.55737	101.81353	976.35315	1737.43683	327.77367	606.63879	1798.09631	315.4488	463.24188	1870.41473	255.69962	274.70413	1916.92169	274.94051	115.60241	1871.77826	215.14267	63.1507	1820.59067	225.34149	44.44621	2002.28546	56.01424	607.87247	1798.67981	56.03301	451.46378	1933.63678	71.9731	309.89122	1814.89365	75.84517	225.31788	1629.1597	130.45072	242.91761	1561.47369	92.20195	75.72243	1633.02795
175	5.81	279.4071	1580.00107	1845.64896	109.80194	1571.05042	1874.85504	290.2215	1525.36041	1731.96884	73.55529	1536.93375	1785.62851	265.33224	1317.98859	1877.44965	131.1429	1309.87427	1884.87473	263.81969	1335.74463	1744.51279	113.86397	1333.29208	1758.73154	197.86497	1159.2765	1723.33328	203.57708	1271.09276	1937.64252	208.62064	1187.72095	2006.93008	360.5262	1326.87469	1821.64673	428.87474	1098.53836	1845.62042	430.69504	1019.70238	1898.7677	387.13589	953.05336	1933.23624	241.5914	981.2236	2034.29123	297.91164	953.04611	2075.02899	259.37551	994.00368	2112.27692	37.55997	1320.7962	1835.10529	-23.29211	1118.88504	1798.22754	-60.74053	1004.81628	1868.71033	4.21786	956.06552	1944.75082	139.40977	1010.21141	2026.02203	87.82947	986.19453	2074.06693	109.2278	1022.52502	2099.74411	332.67647	913.31497	1927.29858	65.2419	901.26282	1937.99469	276.10195	969.89151	1762.20978	105.80393	976.1795	1762.91962	330.49232	608.89893	1816.40594	317.86707	463.28217	1884.02557	256.85268	273.63873	1924.78851	275.31656	115.99396	1874.35028	215.36322	64.63126	1821.58371	226.11675	44.38836	2002.4649	65.37103	607.97691	1843.66455	66.08331	461.14037	1990.00778	81.59117	314.61124	1879.54178	82.87526	221.64619	1698.03741	136.02476	235.11536	1626.07941	98.79011	77.2078	1714.37164
176	5.843	282.51299	1581.31683	1882.04315	112.68869	1570.81818	1909.76837	294.30124	1530.97931	1766.12183	77.11855	1539.90356	1819.03046	267.35197	1323.53043	1907.95975	133.37009	1312.74475	1911.08566	271.06733	1342.44644	1775.96313	120.39977	1338.34549	1784.50851	207.28598	1165.59685	1749.15222	204.70621	1274.08539	1964.78775	208.99624	1190.17639	2033.16025	364.19746	1336.35574	1857.48718	427.87239	1104.70757	1881.94672	427.64633	1025.74059	1933.56216	394.38251	951.29425	1959.74564	258.65944	934.18167	2071.22849	321.45863	911.35658	2105.11993	270.48058	927.69737	2153.27133	42.11109	1324.51584	1859.21555	-13.16169	1121.32095	1820.78827	-52.82676	1008.17696	1889.94385	-3.35606	944.06044	1963.56079	127.98352	967.47093	2061.89194	71.91543	938.23921	2101.48926	99.45054	961.36826	2135.65887	337.42985	914.9675	1951.56235	69.24782	906.00662	1964.98383	278.31738	970.14206	1785.38528	110.27645	977.34352	1787.99759	330.61382	610.81932	1833.40576	319.30004	463.38371	1896.23779	258.21468	272.51682	1932.15012	275.19646	115.94619	1875.57297	214.70375	66.19228	1823.39966	227.68494	44.63343	2002.56104	69.71691	610.66025	1887.32788	78.26064	472.86194	2041.80496	93.62807	316.5663	1942.63504	89.70347	207.74923	1771.39832	140.70883	213.76837	1695.20493	105.24588	73.2969	1806.96823
177	5.877	285.28997	1582.53006	1917.96356	115.27451	1569.46533	1944.12292	298.15567	1536.59088	1800.0795	80.67044	1541.68304	1852.01019	269.90072	1328.93707	1936.82449	137.1817	1317.36115	1936.55945	276.76584	1347.83051	1805.75272	126.64784	1342.86255	1810.37659	216.09978	1170.78041	1773.73535	206.12518	1278.97141	1991.78711	208.82259	1194.02512	2059.33655	368.53298	1343.53836	1889.80408	425.0621	1108.22922	1924.18335	420.83672	1029.83902	1974.83795	399.44176	949.95613	1986.29669	283.05067	877.35733	2092.28867	350.65399	865.08018	2121.83884	302.81122	855.3183	2171.5741	46.4867	1328.30582	1883.92685	-6.70984	1124.51424	1848.24539	-41.96043	1010.15503	1914.32495	-8.8846	928.05496	1976.1792	110.08328	910.90767	2087.29996	47.97628	877.52106	2115.5246	78.0412	881.11488	2154.60236	342.30183	916.24245	1974.3277	74.26588	909.44565	1990.19684	279.15684	970.66879	1808.78632	113.29692	979.34311	1812.57874	330.05386	612.68208	1849.85336	319.86437	463.69637	1908.20007	258.98945	272.00502	1940.17105	275.00158	116.88861	1877.6474	214.20372	68.25153	1824.24698	229.07021	44.72077	2002.74277	69.12894	614.25289	1927.37366	91.82467	484.86202	2087.47299	104.2188	318.71965	2003.638	97.42693	187.81534	1848.88702	146.79691	182.23608	1770.81726	110.18746	63.07442	1904.30771
